<?xml version="1.0" encoding="utf-8"?>
<!-- Generator: Adobe Illustrator 16.0.3, SVG Export Plug-In . SVG Version: 6.00 Build 0)  -->
<!DOCTYPE svg PUBLIC "-//W3C//DTD SVG 1.1//EN" "http://www.w3.org/Graphics/SVG/1.1/DTD/svg11.dtd">
<svg version="1.1"
	 id="svg3357" xmlns:dc="http://purl.org/dc/elements/1.1/" xmlns:cc="http://creativecommons.org/ns#" xmlns:rdf="http://www.w3.org/1999/02/22-rdf-syntax-ns#" xmlns:svg="http://www.w3.org/2000/svg" xmlns:sodipodi="http://sodipodi.sourceforge.net/DTD/sodipodi-0.dtd" xmlns:inkscape="http://www.inkscape.org/namespaces/inkscape" inkscape:version="0.48.5 r10040" sodipodi:docname="icon.svg"
	 xmlns="http://www.w3.org/2000/svg" xmlns:xlink="http://www.w3.org/1999/xlink" x="0px" y="0px" width="24px" height="24px"
	 viewBox="0 0 24 24" enable-background="new 0 0 24 24" xml:space="preserve">
<path display="none" fill="#FDE6D2" d="M18.1-0.2H5.9c-3.3,0-6,2.7-6,6V18c0,3.3,2.7,6,6,6h12.2c3.301,0,6-2.7,6-6V5.8
	C24.1,2.5,21.4-0.2,18.1-0.2L18.1-0.2z"/>
<path display="none" fill="#CB6D20" d="M18.2,1.3c2.481,0,4.5,2.019,4.5,4.5V18c0,2.48-2.019,4.5-4.5,4.5H6
	c-2.481,0-4.5-2.02-4.5-4.5V5.8c0-2.481,2.019-4.5,4.5-4.5H18.2 M18.2-0.2H6c-3.3,0-6,2.7-6,6V18c0,3.3,2.7,6,6,6h12.2
	c3.3,0,6-2.7,6-6V5.8C24.2,2.5,21.5-0.2,18.2-0.2L18.2-0.2z"/>
<g display="none">
	<path display="inline" fill="#CB6D20" d="M9.667,5.845v4.833h4.683V5.845h2.836v12.576H14.35v-5.262H9.667v5.262H6.813V5.845H9.667
		z"/>
</g>
<path fill="#CB6D20" d="M18.1-0.2H5.9c-3.3,0-6,2.7-6,6V18c0,3.3,2.7,6,6,6h12.2c3.301,0,6-2.7,6-6V5.8C24.1,2.5,21.4-0.2,18.1-0.2
	L18.1-0.2z"/>
<g>
	<path fill="#FFFEFD" d="M9.667,5.845v4.833h4.683V5.845h2.836v12.576H14.35v-5.262H9.667v5.262H6.813V5.845H9.667z"/>
</g>
</svg>
