<?xml version="1.0" encoding="utf-8"?>
<!-- Generator: Adobe Illustrator 16.0.3, SVG Export Plug-In . SVG Version: 6.00 Build 0)  -->
<!DOCTYPE svg PUBLIC "-//W3C//DTD SVG 1.1//EN" "http://www.w3.org/Graphics/SVG/1.1/DTD/svg11.dtd">
<svg version="1.1"
	 id="svg3357" xmlns:dc="http://purl.org/dc/elements/1.1/" xmlns:cc="http://creativecommons.org/ns#" xmlns:rdf="http://www.w3.org/1999/02/22-rdf-syntax-ns#" xmlns:svg="http://www.w3.org/2000/svg" xmlns:sodipodi="http://sodipodi.sourceforge.net/DTD/sodipodi-0.dtd" xmlns:inkscape="http://www.inkscape.org/namespaces/inkscape" sodipodi:docname="icon.svg" inkscape:version="0.48.5 r10040"
	 xmlns="http://www.w3.org/2000/svg" xmlns:xlink="http://www.w3.org/1999/xlink" x="0px" y="0px" width="24px" height="24px"
	 viewBox="0 0 24 24" enable-background="new 0 0 24 24" xml:space="preserve">
<g>
	<rect x="3.489" y="14.012" width="16.667" height="2"/>
	<rect x="3.489" y="10.145" width="16.667" height="2"/>
	<rect x="3.489" y="3.278" width="16.667" height="5"/>
	<rect x="3.489" y="17.879" width="16.667" height="2"/>
</g>
<linearGradient id="SVGID_1_" gradientUnits="userSpaceOnUse" x1="11.9995" y1="-0.2002" x2="11.9995" y2="24.0005">
	<stop  offset="0" style="stop-color:#F5F5F5"/>
	<stop  offset="1" style="stop-color:#A8A8A8"/>
</linearGradient>
<path fill="url(#SVGID_1_)" d="M18.1-0.2H5.9c-3.3,0-6,2.7-6,6V18c0,3.3,2.7,6,6,6h12.2c3.301,0,6-2.7,6-6V5.8
	C24.1,2.5,21.4-0.2,18.1-0.2L18.1-0.2z"/>
<sodipodi:namedview  showborder="true" showgrid="true" inkscape:cy="11.624032" inkscape:cx="7.2480563" inkscape:zoom="22.627417" borderopacity="1.0" bordercolor="#666666" pagecolor="#ffffff" id="base" inkscape:window-maximized="1" inkscape:window-y="19" inkscape:window-x="0" inkscape:window-height="727" inkscape:window-width="1366" inkscape:showpageshadow="false" inkscape:pageshadow="2" inkscape:current-layer="layer1" inkscape:pageopacity="0.0" inkscape:document-units="px" inkscape:grid-bbox="true">
	<inkscape:grid  type="xygrid" enabled="true" visible="true" empspacing="5" id="grid4043" snapvisiblegridlinesonly="true">
		</inkscape:grid>
</sodipodi:namedview>
<g>
	<path fill="#FFFFFF" d="M10.584,6.766v4.833h4.682V6.766h2.837v12.576h-2.837V14.08h-4.682v5.262H7.73V6.766H10.584z"/>
</g>
<linearGradient id="SVGID_2_" gradientUnits="userSpaceOnUse" x1="12.1001" y1="24" x2="12.1001" y2="-0.1997">
	<stop  offset="0" style="stop-color:#3F3F3F"/>
	<stop  offset="1" style="stop-color:#131313"/>
</linearGradient>
<path fill="url(#SVGID_2_)" d="M18.2,1.3c2.481,0,4.5,2.019,4.5,4.5V18c0,2.481-2.019,4.5-4.5,4.5H6c-2.481,0-4.5-2.019-4.5-4.5V5.8
	c0-2.481,2.019-4.5,4.5-4.5H18.2 M18.2-0.2H6c-3.3,0-6,2.7-6,6V18c0,3.3,2.7,6,6,6h12.2c3.3,0,6-2.7,6-6V5.8
	C24.2,2.5,21.5-0.2,18.2-0.2L18.2-0.2z"/>
<g>
	<linearGradient id="SVGID_3_" gradientUnits="userSpaceOnUse" x1="11.9995" y1="5.8452" x2="11.9995" y2="18.4214">
		<stop  offset="0" style="stop-color:#3F3F3F"/>
		<stop  offset="1" style="stop-color:#080808"/>
	</linearGradient>
	<path fill="url(#SVGID_3_)" d="M9.667,5.845v4.833h4.682V5.845h2.837v12.576H14.35v-5.262H9.667v5.262H6.813V5.845H9.667z"/>
</g>
</svg>
